<svg id="Layer_1" enable-background="new 0 0 512 512" height="512" viewBox="0 0 512 512" width="512" xmlns="http://www.w3.org/2000/svg"><g><path d="m256 21.996c-135.311 0-245.002 109.691-245.002 245.002 0 123.11 90.806 224.999 209.09 242.375h71.824c118.284-17.376 209.09-119.265 209.09-242.375 0-135.311-109.691-245.002-245.002-245.002z" fill="#92c357"/><path d="m276.061 427.437c-11.116 0-20.212 9.095-20.212 20.212v64.35c.05 0 .1.001.151.001 12.201 0 24.189-.905 35.912-2.627v-81.936z" fill="#3c58a0"/><path d="m430.286 439.173c-9.598-6.987-21.383-11.129-34.094-11.129h-18.575c-31.995 0-58.173 26.178-58.173 58.173v17.47c42.652-11.403 80.717-34.026 110.842-64.514z" fill="#b4d667"/><path d="m134.382 428.044h-18.575c-12.711 0-24.495 4.142-34.093 11.129 30.125 30.488 68.189 53.112 110.842 64.515v-17.47c0-31.996-26.178-58.174-58.174-58.174z" fill="#b4d667"/><path d="m256.63 447.819c0-10.876 8.898-19.775 19.775-19.775h15.508v-29.074h-71.824v110.403c11.722 1.722 23.71 2.627 35.911 2.627.21 0 .419-.005.63-.006z" fill="#2a428c"/><path d="m393.037 56.792c-19.213-16.208 0-30.683 0-30.683h-109.855c14.723 6.536 26.655 18.208 33.513 32.753h79.108c-.967-.645-1.892-1.334-2.766-2.07z" fill="#3c58a0"/><path d="m392.037 56.792c.873.737 1.798 1.425 2.766 2.07h61.11v-14.12c0-10.248-8.385-18.633-18.633-18.633h-45.243s-19.212 14.474 0 30.683z" fill="#4f71b6"/><path d="m228.819 26.109h-154.1c-10.248 0-18.633 8.385-18.633 18.633v14.121h139.219c6.859-14.546 18.79-26.218 33.514-32.754z" fill="#2a428c"/><path d="m383.835 70.098c-.222 5.461 2.182 10.745 7.142 15.705 14.702 14.702 82.561 203.548 83.245 205.454l.091.252.172.205c.235.281 5.88 6.906 14.357 7.279 5.092.211 10.047-1.855 14.742-6.169v-214.134c0-12.044-9.854-21.899-21.899-21.899h-91.798c-1.985 2.09-5.792 6.9-6.052 13.307z" fill="#e9efff"/><path d="m392.037 56.792h-76.372c4.727 9.187 7.413 19.596 7.413 30.639 0 37.046-30.032 67.078-67.078 67.078-8.442 0-16.512-1.574-23.953-4.421l3.07 22.719c-1.917 2.092-8.606 9.934-12.194 21.069-3.806 11.813-4.629 29.585 12.877 47.396v19.436c-1.447 1.421-5.356 5.797-5.591 11.809-.174 4.462 1.7 8.771 5.574 12.819l-.566 20.65c-2.63 2.348-13.904 13.327-15.153 29.974-.929 12.385 3.945 24.816 14.489 36.968-2.45 2.193-7.621 7.644-7.637 14.593-.011 4.845 2.471 9.386 7.379 13.521h247.39c12.044 0 21.899-9.855 21.899-21.899v-88.393c-15.208 15.208-27.95 0-27.95 0s-68.486-190.898-83.597-206.008c-15.11-15.11 0-27.95 0-27.95z" fill="#d3dcfb"/><path d="m236.699 373.09c-34.301-38.16 0-66.404 0-66.404l.602-21.945c-12.604-12.604 0-23.382 0-23.382v-20.704c-33.73-33.731-.602-67.341-.602-67.341l-3.059-22.638c-26.049-9.21-44.717-34.042-44.717-63.246 0-11.043 2.685-21.452 7.413-30.639h-166.021c-12.044 0-21.899 9.855-21.899 21.899v300.451c0 12.044 9.854 21.899 21.899 21.899h206.384c-18.635-14.043 0-27.95 0-27.95z" fill="#bec8f7"/><path d="m284.104 148.336c-8.551 3.952-18.066 6.173-28.104 6.173-8.446 0-16.514-1.589-23.956-4.442l3.073 22.739c-1.917 2.092-8.606 9.934-12.194 21.069-3.806 11.813-4.629 29.585 12.877 47.396v19.436c-1.447 1.421-5.356 5.797-5.591 11.809-.174 4.462 1.7 8.771 5.574 12.819l-.566 20.65c-2.63 2.348-13.904 13.327-15.153 29.974-.929 12.385 3.945 24.816 14.489 36.968-.056.05-.12.11-.178.163h241.258v-224.754z" fill="#2a428c"/><path d="m236.699 306.686.602-21.945c-12.604-12.604 0-23.382 0-23.382v-20.704c-33.73-33.731-.602-67.341-.602-67.341l-3.062-22.659c-1.954-.693-3.874-1.457-5.741-2.32h-191.53v224.755h200.333c-34.302-38.16 0-66.404 0-66.404z" fill="#1c2e7a"/><path d="m188.922 87.431c0-.902.033-1.796.068-2.689h-152.624v65.665h196.489c-25.641-9.427-43.933-34.065-43.933-62.976z" fill="#ff4155"/><path d="m323.01 84.742c.035.893.068 1.787.068 2.689 0 28.911-18.292 53.549-43.933 62.976h196.489v-65.665z" fill="#49b1f7"/><g><path d="m112.626 123.975h-37.956c-4.002 0-7.246-3.244-7.246-7.246s3.244-7.246 7.246-7.246h37.957c4.002 0 7.246 3.244 7.246 7.246s-3.245 7.246-7.247 7.246z" fill="#ff7186"/></g><g><path d="m399.374 123.975h-37.957c-4.002 0-7.246-3.244-7.246-7.246s3.244-7.246 7.246-7.246h37.957c4.002 0 7.246 3.244 7.246 7.246s-3.244 7.246-7.246 7.246z" fill="#73c3f9"/></g><g><path d="m372.919 340.866c-26.791 0-48.588-21.797-48.588-48.587v-61.148c0-12.365 4.648-24.146 13.088-33.176 3.904-4.177 10.455-4.397 14.632-.493s4.397 10.455.493 14.632c-4.842 5.18-7.509 11.941-7.509 19.037v61.148c0 15.375 12.509 27.883 27.884 27.883 7.449 0 14.451-2.9 19.717-8.167 4.043-4.042 10.597-4.042 14.64 0 4.043 4.043 4.043 10.596 0 14.64-9.176 9.178-21.378 14.231-34.357 14.231z" fill="#49b1f7"/></g><g><path d="m274.7 261.359h-37.4c-5.717 0-10.352-4.635-10.352-10.352s4.635-10.352 10.352-10.352h37.4c5.717 0 10.352 4.635 10.352 10.352s-4.635 10.352-10.352 10.352z" fill="#3c58a0"/></g><g><path d="m212.842 306.686c-4.002 0-7.246-3.244-7.246-7.246v-7.453c0-4.002 3.244-7.246 7.246-7.246s7.246 3.244 7.246 7.246v7.453c0 4.002-3.244 7.246-7.246 7.246z" fill="#3c58a0"/></g><g><path d="m236.699 306.686c-4.002 0-7.246-3.244-7.246-7.246v-7.453c0-4.002 3.244-7.246 7.246-7.246s7.246 3.244 7.246 7.246v7.453c0 4.002-3.244 7.246-7.246 7.246z" fill="#6289cc"/></g><g><path d="m275.302 306.686c-4.002 0-7.246-3.244-7.246-7.246v-7.453c0-4.002 3.244-7.246 7.246-7.246s7.246 3.244 7.246 7.246v7.453c0 4.002-3.244 7.246-7.246 7.246z" fill="#3c58a0"/></g><g><path d="m299.158 306.686c-4.002 0-7.246-3.244-7.246-7.246v-7.453c0-4.002 3.244-7.246 7.246-7.246s7.246 3.244 7.246 7.246v7.453c.001 4.002-3.244 7.246-7.246 7.246z" fill="#6289cc"/></g><g><path d="m139.08 340.866c-26.791 0-48.587-21.797-48.587-48.587v-61.148c0-12.365 4.648-24.147 13.088-33.176 3.904-4.177 10.455-4.397 14.631-.493 4.177 3.904 4.397 10.455.493 14.632-4.842 5.18-7.509 11.94-7.509 19.037v61.148c0 15.375 12.509 27.883 27.884 27.883 7.448 0 14.451-2.9 19.717-8.167 4.043-4.042 10.597-4.042 14.64 0 4.043 4.043 4.043 10.597 0 14.64-9.176 9.178-21.378 14.231-34.357 14.231z" fill="#ff4155"/></g><g><path d="m166.117 329.668c-2.65 0-5.298-1.011-7.32-3.033-4.042-4.043-4.042-10.597.001-14.639 5.266-5.266 8.167-12.268 8.167-19.716v-61.148c0-5.717 4.635-10.352 10.352-10.352s10.352 4.635 10.352 10.352v61.148c0 12.978-5.054 25.18-14.231 34.356-2.022 2.02-4.672 3.032-7.321 3.032z" fill="#ff7186"/></g><g><path d="m111.141 215.377c-2.533 0-5.071-.924-7.067-2.789-4.176-3.904-4.397-10.455-.493-14.632 9.156-9.795 22.095-15.413 35.499-15.413 5.717 0 10.352 4.635 10.352 10.352s-4.635 10.352-10.352 10.352c-7.806 0-15.041 3.142-20.375 8.848-2.037 2.179-4.797 3.282-7.564 3.282z" fill="#ff7186"/></g><g><path d="m150.583 123.975h-37.957c-4.002 0-7.246-3.244-7.246-7.246s3.244-7.246 7.246-7.246h37.957c4.002 0 7.246 3.244 7.246 7.246.001 4.002-3.244 7.246-7.246 7.246z" fill="#f9a0b1"/></g><g><path d="m437.331 123.975h-37.957c-4.002 0-7.246-3.244-7.246-7.246s3.244-7.246 7.246-7.246h37.957c4.002 0 7.246 3.244 7.246 7.246s-3.244 7.246-7.246 7.246z" fill="#9bd8f9"/></g><path d="m337.532 117.439c-4.122 1.41-7.351 1.383-9.594-.08-2.984-1.945-3.362-5.933-3.365-5.968l-.027-.346-.177-.3c-.494-.836-49.505-83.741-56.46-94.586-1.817-2.833-2.369-5.4-1.642-7.63 1.168-3.582 5.296-5.434 5.906-5.691l2.976-.729c-6.166-1.376-12.573-2.109-19.149-2.109-48.374 0-87.729 39.355-87.729 87.729s39.355 87.729 87.729 87.729c38.115 0 70.625-24.435 82.702-58.461-.398.164-.789.312-1.17.442z" fill="#4f71b6"/><path d="m271.708 1.411c-.069.026-12.062 4.644-5.062 15.559 7.02 10.946 56.432 94.539 56.432 94.539s.957 12.127 14.939 7.351c3.686-9.68 5.712-20.172 5.712-31.131 0-43.013-31.117-78.894-72.021-86.318z" fill="#6289cc"/><g><path d="m263.466 145.197c-2.736 4.492-2.236 9.344 2.293 12.82 6.297-.863 12.334-2.543 17.995-4.939l-9.054-9.49h-15.597c1.353.589 2.801 1.131 4.363 1.609z" fill="#bec8f7"/><path d="m266.646 157.892c-7.99-5.567-2.188-13.054-2.188-13.054-1.317-.376-2.56-.795-3.733-1.251h-23.425l-9.054 9.49c8.53 3.611 17.908 5.607 27.753 5.607 3.619 0 7.174-.272 10.647-.792z" fill="#a2b6f4"/><path d="m265.573 16.82c-1.953 1.611-6.247 6.211-2.366 13.204 0 0-1.418.367-3.539 1.251h15.032l9.054-9.489c-5.717-2.421-11.816-4.111-18.181-4.966z" fill="#bec8f7"/><path d="m266.646 16.97c-3.473-.521-7.028-.793-10.646-.793-9.845 0-19.224 1.997-27.753 5.608l9.054 9.489h23.619c2.122-.883 3.539-1.251 3.539-1.251-3.768-6.786.167-11.319 2.187-13.053z" fill="#a2b6f4"/><path d="m305.495 102.08 17.583 9.429c2.7-7.522 4.175-15.627 4.175-24.078s-1.475-16.557-4.175-24.078l-17.583 9.429z" fill="#e9efff"/><path d="m206.505 102.08-17.583 9.429c-2.7-7.522-4.175-15.627-4.175-24.078s1.475-16.557 4.175-24.078l17.583 9.429z" fill="#a2b6f4"/><path d="m323.078 63.353c-6.728-18.74-21.082-33.846-39.324-41.567l-9.054 8.239 4.335 29.459 27.711 13.299z" fill="#d3dcfb"/><path d="m188.922 63.353c6.728-18.74 21.082-33.846 39.324-41.567l9.054 8.239-2.945 30.262-29.101 12.496z" fill="#3c58a0"/><path d="m323.078 111.509c-6.728 18.74-21.082 33.845-39.324 41.567l-9.054-8.239 3.363-30.02 28.683-12.738z" fill="#d3dcfb"/><path d="m188.922 111.509c6.728 18.74 21.082 33.845 39.324 41.567l9.054-8.239-2.892-30.292-29.154-12.466z" fill="#3c58a0"/><path d="m256 99.995-15.327 10.108.421.414c-.225 1.464-.942 7.436 1.033 14.261 1.969 6.804 7.088 15.65 20.229 20.059h12.344l6.673-28.109z" fill="#e9efff"/><path d="m241.764 110.299-.557-.548-10.58 6.977 6.673 28.109h27.158c-27.691-7.903-22.694-34.538-22.694-34.538z" fill="#d3dcfb"/><path d="m274.7 30.024h-11.492s-28.013 7.237-21.668 35.132c.016.068.027.134.042.202l14.418 9.509 25.373-16.734z" fill="#e9efff"/><path d="m264.458 30.024h-27.158l-6.673 28.109 12.376 8.162c-.056-.374-.174-.746-.212-1.139-2.688-28.043 21.667-35.132 21.667-35.132z" fill="#d3dcfb"/><path d="m256 72.782v29.298l25.373 14.649 25.373-14.649v-29.298l-25.373-14.649z" fill="#4f71b6"/><path d="m242.383 64.921c-3.65 1.967-8.743 5.955-8.743 12.912v22.162s1.089 6.919 7.709 10.543l14.651-8.458v-29.298z" fill="#d3dcfb"/><path d="m242.791 65.156-12.164-7.023-25.373 14.649v29.298l25.373 14.649 11.137-6.43c-6.246-3.681-7.29-10.304-7.29-10.304s0-11.322 0-22.162c0-6.69 4.71-10.635 8.317-12.677z" fill="#bec8f7"/></g><g><path d="m177.316 241.483c-5.717 0-10.352-4.635-10.352-10.352 0-15.375-12.509-27.884-27.884-27.884-5.717 0-10.352-4.635-10.352-10.352s4.635-10.352 10.352-10.352c26.791 0 48.588 21.797 48.588 48.588 0 5.717-4.634 10.352-10.352 10.352z" fill="#f9a0b1"/></g><g><path d="m399.956 329.668c-2.65 0-5.299-1.011-7.32-3.033-4.042-4.043-4.042-10.597 0-14.639 5.267-5.266 8.167-12.268 8.167-19.716v-61.148c0-5.717 4.635-10.352 10.352-10.352s10.352 4.635 10.352 10.352v61.148c0 12.978-5.054 25.18-14.231 34.356-2.021 2.02-4.671 3.032-7.32 3.032z" fill="#73c3f9"/></g><g><path d="m344.98 215.377c-2.533 0-5.07-.924-7.067-2.789-4.177-3.904-4.397-10.455-.493-14.632 9.156-9.795 22.095-15.413 35.499-15.413 5.717 0 10.352 4.635 10.352 10.352s-4.635 10.352-10.352 10.352c-7.806 0-15.041 3.142-20.375 8.848-2.037 2.179-4.797 3.282-7.564 3.282z" fill="#73c3f9"/></g><g><path d="m411.155 241.483c-5.717 0-10.352-4.635-10.352-10.352 0-15.375-12.509-27.884-27.884-27.884-5.717 0-10.352-4.635-10.352-10.352s4.635-10.352 10.352-10.352c26.791 0 48.588 21.797 48.588 48.588 0 5.717-4.634 10.352-10.352 10.352z" fill="#9bd8f9"/></g></g></svg>