<svg id="Capa_1" enable-background="new 0 0 512 512" height="512" viewBox="0 0 512 512" width="512" xmlns="http://www.w3.org/2000/svg"><g><path d="m459.886 398.795h-407.771c-13.776 0-24.943-11.168-24.943-24.943v-235.704c0-13.776 11.167-24.943 24.943-24.943h407.771c13.776 0 24.943 11.167 24.943 24.943v235.704c0 13.776-11.168 24.943-24.943 24.943z" fill="#79ce6f"/><path d="m171.932 113.205h-119.817c-13.776 0-24.943 11.167-24.943 24.943v235.704c0 13.776 11.167 24.943 24.943 24.943h179.321c-51.792-63.744-65.718-185.745-59.504-285.59z" fill="#4dc176"/><g fill="#fff"><path d="m153.737 256c0-25.714-19.036-47.06-43.755-50.701v-22.554c0-4.142-3.358-7.5-7.5-7.5h-75.94c-4.142 0-7.5 3.358-7.5 7.5s3.358 7.5 7.5 7.5h68.439v131.51h-68.439c-4.142 0-7.5 3.358-7.5 7.5s3.358 7.5 7.5 7.5h75.939c4.142 0 7.5-3.358 7.5-7.5v-22.554c24.719-3.641 43.756-24.987 43.756-50.701zm-43.756 35.471v-70.941c16.404 3.465 28.755 18.05 28.755 35.47s-12.351 32.006-28.755 35.471z"/><path d="m485.458 321.755h-68.439v-131.51h68.439c4.143 0 7.5-3.358 7.5-7.5s-3.357-7.5-7.5-7.5h-75.939c-4.143 0-7.5 3.358-7.5 7.5v22.554c-24.719 3.641-43.755 24.987-43.755 50.701s19.036 47.06 43.755 50.701v22.554c0 4.142 3.357 7.5 7.5 7.5h75.939c4.143 0 7.5-3.358 7.5-7.5s-3.357-7.5-7.5-7.5zm-112.194-65.755c0-17.42 12.351-32.006 28.755-35.47v70.924c-16.403-3.464-28.755-18.035-28.755-35.454z"/><path d="m263.5 205.502v-90.311c0-4.142-3.357-7.5-7.5-7.5-4.142 0-7.5 3.358-7.5 7.5v90.311c-24.608 3.639-43.554 24.895-43.554 50.498s18.946 46.859 43.554 50.499v90.311c0 4.142 3.358 7.5 7.5 7.5s7.5-3.358 7.5-7.5v-90.31c24.608-3.639 43.555-24.895 43.555-50.499s-18.947-46.86-43.555-50.499zm-15 85.762c-16.292-3.461-28.554-17.956-28.554-35.264s12.262-31.802 28.554-35.264zm15 0v-70.528c16.292 3.461 28.555 17.955 28.555 35.264s-12.263 31.803-28.555 35.264z"/></g><path d="m450.986 82.278h-276.42c-10.717 9.527-14.035 24.874-2.993 37.16h279.413c13.174 0 23.854 10.68 23.854 23.854v225.416c0 13.174-10.68 23.854-23.854 23.854h-224.383c-3.539 18.58 17.367 33.483 41.182 37.159h183.201c33.643 0 61.014-27.37 61.014-61.014v-225.415c0-33.643-27.371-61.014-61.014-61.014z" fill="#ebca5f"/><path d="m37.16 368.708v-225.416c0-13.174 10.68-23.854 23.854-23.854h110.559c.681-12.771 1.689-25.213 2.993-37.16h-113.552c-33.643 0-61.014 27.371-61.014 61.014v225.416c0 33.643 27.371 61.014 61.014 61.014h206.771c-15.931-8.631-29.589-21.351-41.182-37.159h-165.589c-13.174-.001-23.854-10.681-23.854-23.855z" fill="#e6ac49"/></g></svg>