<svg height="496pt" viewBox="0 0 496 496" width="496pt" xmlns="http://www.w3.org/2000/svg"><path d="m208 312h8l112 8v88l-48 16v64h-272v-99.535156c0-30.503906 21.535156-56.777344 51.449219-62.761719l68.550781-13.703125zm0 0" fill="#5cd6b3"/><path d="m72 488v-96l-16 96zm0 0" fill="#37bc9b"/><path d="m216 312h-88l-40 8 24 64 56-24 56 24 24-64 2.222656-5.550781zm0 0" fill="#e6e9ed"/><path d="m360 104h32v120h-32zm0 0" fill="#dfb28b"/><path d="m360 8h128v96h-128zm0 0" fill="#ff826e"/><path d="m376 200c-5.695312 0-11.089844 1.230469-16 3.390625v20.609375h32v-20.609375c-4.910156-2.160156-10.304688-3.390625-16-3.390625zm0 0" fill="#cf9e76"/><path d="m328 336 14.625-14.625c6-6 9.375-14.144531 9.375-22.621094v-58.753906c0-13.257812 10.742188-24 24-24s24 10.742188 24 24v72.808594c0 14.855468-5.894531 29.09375-16.398438 39.597656l-47.601562 47.59375h-8zm0 0" fill="#f0d0b4"/><path d="m280 320v104l15.214844-5.070312zm0 0" fill="#37bc9b"/><path d="m8 440h64v48h-64zm0 0" fill="#f0d0b4"/><path d="m56 488h16v-48h-8zm0 0" fill="#ecc19c"/><path d="m128 280v32l40 40 40-40v-32zm0 0" fill="#f0d0b4"/><path d="m360 104h32v16h-32zm0 0" fill="#cf9e76"/><path d="m128 311.976562c12.320312 5.152344 25.832031 8.023438 40 8.023438s27.679688-2.871094 40-8.023438v-31.976562h-80zm0 0" fill="#ecc19c"/><path d="m48 112h240v104h-240zm0 0" fill="#838f9b"/><path d="m48 140.855469c33.785156 27.785156 76.191406 43.144531 120 43.144531s86.214844-15.359375 120-43.144531v-28.855469h-240zm0 0" fill="#656d78"/><path d="m80 144v72c0 48.601562 39.398438 88 88 88s88-39.398438 88-88v-72zm0 0" fill="#f0d0b4"/><path d="m80 184c-17.671875 0-32 14.328125-32 32s14.328125 32 32 32h176c17.671875 0 32-14.328125 32-32s-14.328125-32-32-32zm0 0" fill="#f0d0b4"/><path d="m176 8h-16c-61.855469 0-112 50.144531-112 112l7.40625 6.351562c31.363281 26.871094 71.296875 41.648438 112.59375 41.648438s81.230469-14.777344 112.59375-41.648438l7.40625-6.351562c0-61.855469-50.144531-112-112-112zm0 0" fill="#fcd770"/><path d="m80 162.046875c26.984375 14.210937 57.121094 21.953125 88 21.953125s61.015625-7.742188 88-21.953125v-18.046875h-176zm0 0" fill="#ecc19c"/><path d="m168 168c41.296875 0 81.230469-14.777344 112.59375-41.648438l7.40625-6.351562h-240l7.40625 6.351562c31.363281 26.871094 71.296875 41.648438 112.59375 41.648438zm0 0" fill="#ffeaa7"/><path d="m344 319.695312c-.480469.542969-.855469 1.160157-1.375 1.671876l-14.625 14.632812v64h8l8-8zm0 0" fill="#ecc19c"/><path d="m216 232h-16c0 17.648438-14.351562 32-32 32s-32-14.351562-32-32h-16c0 26.472656 21.527344 48 48 48s48-21.527344 48-48zm0 0"/><path d="m128 184c0 4.417969-3.582031 8-8 8s-8-3.582031-8-8 3.582031-8 8-8 8 3.582031 8 8zm0 0"/><path d="m224 184c0 4.417969-3.582031 8-8 8s-8-3.582031-8-8 3.582031-8 8-8 8 3.582031 8 8zm0 0"/><path d="m496 112v-112h-144v219.054688c-4.921875 5.625-8 12.898437-8 20.945312v58.742188c0 6.320312-2.558594 12.496093-7.03125 16.96875l-.96875.976562v-4.136719l-120-8.550781v-4.992188c17.097656-9.929687 30.832031-24.953124 39.160156-43.007812h.839844c22.054688 0 40-17.945312 40-40v-104h-.40625c-4.144531-62.441406-56.121094-112-119.59375-112h-16c-63.472656 0-115.449219 49.558594-119.59375 112h-.40625v104c0 22.054688 17.945312 40 40 40h.839844c8.320312 18.054688 22.054687 33.089844 39.160156 43.007812v6.433594l-62.128906 12.421875c-33.527344 6.703125-57.871094 36.402344-57.871094 70.609375v107.527344h288v-66.230469l48-16v-5.769531h3.3125l49.945312-49.945312c12.085938-12.085938 18.742188-28.160157 18.742188-45.246094v-72.808594c0-8.039062-3.078125-15.3125-8-20.945312v-107.054688zm-128-48h48v32h-48zm64 32v-32h48v32zm48-48h-48v-32h48zm-64-32v32h-48v-32zm-177.167969 305.65625-19.382812 51.695312-43.042969-18.449218 34.914062-34.910156 4.113282-.007813zm-79.238281 33.246094-43.042969 18.449218-17.75-47.351562 26.574219-5.3125zm-87.59375-178.09375c-5.945312 1.214844-11.328125 3.855468-16 7.390625v-47.238281c5.152344 4.0625 10.480469 7.839843 16 11.296874zm-1.511719-48.808594h195.03125c-28.207031 20.671875-62.351562 32-97.511719 32-35.160156 0-69.320312-11.328125-97.519531-32zm209.511719 8.960938v47.246093c-4.671875-3.535156-10.054688-6.183593-16-7.390625v-28.550781c5.519531-3.464844 10.847656-7.242187 16-11.304687zm-19.023438 102.503906c1.902344-7.519532 3.023438-15.359375 3.023438-23.464844v-22.527344c9.289062 3.3125 16 12.113282 16 22.527344 0 11.527344-8.167969 21.167969-19.023438 23.464844zm-100.976562-223.464844h16c54.640625 0 99.449219 42.390625 103.566406 96h-223.132812c4.117187-53.609375 48.925781-96 103.566406-96zm-104 200c0-10.414062 6.710938-19.214844 16-22.527344v22.527344c0 8.105469 1.121094 15.945312 3.023438 23.464844-10.855469-2.296875-19.023438-11.9375-19.023438-23.464844zm32 0v-58.761719c24.726562 12.1875 52.054688 18.761719 80 18.761719s55.273438-6.574219 80-18.761719v58.761719c0 44.113281-35.886719 80-80 80s-80-35.886719-80-80zm80 96c11.230469 0 21.976562-2.039062 32-5.601562v2.289062l-32 32-32-32v-2.289062c10.023438 3.5625 20.769531 5.601562 32 5.601562zm-152 136h48v32h-48zm256 32h-192v-88h-16v40h-48v-43.527344c0-26.609375 18.929688-49.695312 45.015625-54.914062l21.878906-4.375 24.5625 65.472656 60.542969-25.953125 60.542969 25.953125 26.9375-71.808594 16.519531 1.175782zm48-77.769531-32 10.664062v-87.734375l32 2.289063zm72-89.421875c0 12.824218-4.992188 24.871094-14.054688 33.945312l-41.945312 41.933594v-49.375l12.28125-12.289062c7.550781-7.550782 11.71875-17.597657 11.71875-28.28125v-58.742188c0-8.824219 7.175781-16 16-16s16 7.175781 16 16zm-8-103.671875c-2.574219-.671875-5.222656-1.136719-8-1.136719s-5.425781.464844-8 1.136719v-97.136719h16zm0 0"/></svg>